<?xml version="1.0" encoding="utf-8"?>
<!-- Generator: Adobe Illustrator 17.0.0, SVG Export Plug-In . SVG Version: 6.00 Build 0)  -->
<!DOCTYPE svg PUBLIC "-//W3C//DTD SVG 1.1//EN" "http://www.w3.org/Graphics/SVG/1.1/DTD/svg11.dtd">
<svg version="1.1" id="Layer_1" xmlns="http://www.w3.org/2000/svg" xmlns:xlink="http://www.w3.org/1999/xlink" x="0px" y="0px"
	 width="40px" height="37.5px" viewBox="0 0 40 37.5" enable-background="new 0 0 40 37.5" xml:space="preserve">
<g>
	<g>
		<g>
			<path opacity="0.7" fill="#8B4041" d="M36.684,36.249H3.314c-0.449,0-0.814-0.364-0.814-0.814c0-0.45,0.364-0.814,0.814-0.814
				h33.37c0.449,0,0.814,0.364,0.814,0.814C37.498,35.885,37.134,36.249,36.684,36.249z"/>
		</g>
		<g>
			<g>
				<path fill="#8B4041" d="M32.248,14.497c-0.208,0-0.416-0.079-0.575-0.238l-6.903-6.903c-0.318-0.318-0.318-0.833,0-1.151
					c0.318-0.318,0.833-0.318,1.151,0l6.903,6.903c0.318,0.318,0.318,0.833,0,1.151C32.664,14.418,32.456,14.497,32.248,14.497z"/>
			</g>
			<g>
				<path fill="#8B4041" d="M30.196,16.549c-0.208,0-0.416-0.079-0.575-0.238l-6.904-6.903c-0.318-0.318-0.318-0.833,0-1.151
					c0.318-0.318,0.833-0.318,1.151,0l6.904,6.903c0.318,0.318,0.318,0.833,0,1.151C30.613,16.469,30.405,16.549,30.196,16.549z"/>
			</g>
			<g>
				<path fill="#8B4041" d="M3.447,36.115c-0.212,0-0.42-0.083-0.575-0.238c-0.218-0.218-0.294-0.54-0.197-0.833l3.592-10.773
					c0.04-0.12,0.107-0.229,0.197-0.318L28.082,2.335c0.699-0.699,1.632-1.084,2.627-1.084c0.994,0,1.927,0.385,2.627,1.084
					l3.078,3.078c1.449,1.45,1.449,3.808,0,5.255L14.796,32.286c-0.089,0.089-0.198,0.157-0.318,0.196l-10.774,3.59
					C3.62,36.101,3.533,36.115,3.447,36.115z M7.75,24.968l-3.016,9.046l9.047-3.015L35.263,9.517c0.814-0.814,0.814-2.139,0-2.954
					l-3.077-3.077c-0.785-0.783-2.169-0.784-2.952,0L7.75,24.968z"/>
			</g>
		</g>
	</g>
</g>
</svg>
