<?xml version="1.0" encoding="utf-8"?>
<!-- Generator: Adobe Illustrator 17.0.0, SVG Export Plug-In . SVG Version: 6.00 Build 0)  -->
<!DOCTYPE svg PUBLIC "-//W3C//DTD SVG 1.1//EN" "http://www.w3.org/Graphics/SVG/1.1/DTD/svg11.dtd">
<svg version="1.1" id="Layer_1" xmlns="http://www.w3.org/2000/svg" xmlns:xlink="http://www.w3.org/1999/xlink" x="0px" y="0px"
	 width="94px" height="87px" viewBox="0 0 94 87" enable-background="new 0 0 94 87" xml:space="preserve">
<g>
	<circle fill="#96A29E" cx="23.296" cy="63.684" r="22.296"/>
	<circle fill="#6D4C41" cx="70.704" cy="63.684" r="22.296"/>
	<circle fill="#8B4041" cx="46.953" cy="23.316" r="22.296"/>
	<path fill="#FFFFFF" d="M52.748,29.869h-2.935L46,25.494h-2.374v4.374h-2.467V16.764c2.075,0,4.15,0.019,6.225,0.019
		c3.084,0.019,4.71,2.075,4.71,4.337c0,1.795-0.822,3.608-3.309,4.112l3.963,4.468V29.869z M43.626,19.082v4.187h3.758
		c1.57,0,2.243-1.047,2.243-2.094c0-1.047-0.691-2.094-2.243-2.094H43.626z"/>
	<path fill="#FFFFFF" d="M28.418,70.227h-2.094l-1.627-4.113l-1.383-4.131l-1.365,4.169l-1.589,4.075h-2.094l-4.804-13.086h2.767
		l3.084,9.441l3.178-9.441H24.1l3.272,9.441l2.991-9.441h2.767L28.418,70.227z"/>
	<path fill="#FFFFFF" d="M76.546,63.572c0.056,3.309-1.963,6.655-6.543,6.655c-1.607,0-3.533,0-5.141,0V57.141
		c1.608,0,3.534,0,5.141,0C74.489,57.141,76.489,60.338,76.546,63.572z M67.31,67.852h2.692c2.972,0,4.15-2.168,4.094-4.3
		c-0.056-2.038-1.253-4.075-4.094-4.075H67.31V67.852z"/>
</g>
</svg>
