<?xml version="1.0" encoding="utf-8"?>
<!-- Generator: Adobe Illustrator 17.0.0, SVG Export Plug-In . SVG Version: 6.00 Build 0)  -->
<!DOCTYPE svg PUBLIC "-//W3C//DTD SVG 1.1//EN" "http://www.w3.org/Graphics/SVG/1.1/DTD/svg11.dtd">
<svg version="1.1" id="Layer_1" xmlns="http://www.w3.org/2000/svg" xmlns:xlink="http://www.w3.org/1999/xlink" x="0px" y="0px"
	 width="48px" height="45px" viewBox="0 0 48 45" enable-background="new 0 0 48 45" xml:space="preserve">
<g>
	<g>
		<g>
			<g>
				<path fill="#96A29E" d="M24.87,28.587H4c-0.481,0-0.87-0.389-0.87-0.87c0-0.48,0.389-0.87,0.87-0.87h20.87
					c0.481,0,0.87,0.389,0.87,0.87C25.739,28.198,25.35,28.587,24.87,28.587z"/>
			</g>
			<g>
				<path fill="#96A29E" d="M24.025,39.022h-5.242c-0.481,0-0.87-0.389-0.87-0.87c0-3.356,2.731-6.087,6.087-6.087
					c0.481,0,0.87,0.389,0.87,0.87c0,0.48-0.389,0.87-0.87,0.87c-2.1,0-3.856,1.496-4.26,3.478h4.285c0.481,0,0.87,0.389,0.87,0.87
					C24.894,38.633,24.505,39.022,24.025,39.022z"/>
			</g>
			<g>
				<path fill="#96A29E" d="M24.87,33.804H7.478c-2.397,0-4.348-1.951-4.348-4.348V6.848C3.13,4.451,5.081,2.5,7.478,2.5h33.043
					c2.397,0,4.348,1.951,4.348,4.348v6.957c0,0.48-0.389,0.87-0.87,0.87s-0.87-0.389-0.87-0.87V6.848
					c0-1.439-1.17-2.609-2.609-2.609H7.478c-1.439,0-2.609,1.17-2.609,2.609v22.609c0,1.439,1.17,2.609,2.609,2.609H24.87
					c0.481,0,0.87,0.389,0.87,0.87C25.739,33.415,25.35,33.804,24.87,33.804z"/>
			</g>
		</g>
		<g>
			<g>
				<path fill="#96A29E" d="M40.522,42.5H28.348C25.951,42.5,24,40.549,24,38.152V13.804c0-2.397,1.951-4.348,4.348-4.348h12.174
					c2.397,0,4.348,1.951,4.348,4.348v24.348C44.87,40.549,42.919,42.5,40.522,42.5z M28.348,11.196
					c-1.439,0-2.609,1.17-2.609,2.609v24.348c0,1.439,1.17,2.609,2.609,2.609h12.174c1.439,0,2.609-1.17,2.609-2.609V13.804
					c0-1.439-1.17-2.609-2.609-2.609H28.348z"/>
			</g>
			<g>
				<path fill="#96A29E" d="M44,16.413H24.87c-0.481,0-0.87-0.389-0.87-0.87c0-0.48,0.389-0.87,0.87-0.87H44
					c0.481,0,0.87,0.389,0.87,0.87C44.87,16.024,44.481,16.413,44,16.413z"/>
			</g>
			<g>
				<path fill="#96A29E" d="M44,32.065H24.87c-0.481,0-0.87-0.389-0.87-0.87c0-0.48,0.389-0.87,0.87-0.87H44
					c0.481,0,0.87,0.389,0.87,0.87C44.87,31.676,44.481,32.065,44,32.065z"/>
			</g>
			<g>
				<path fill="#96A29E" d="M34.435,39.022c-1.439,0-2.609-1.17-2.609-2.609s1.17-2.609,2.609-2.609s2.609,1.17,2.609,2.609
					S35.873,39.022,34.435,39.022z M34.435,35.543c-0.48,0-0.87,0.39-0.87,0.87s0.39,0.87,0.87,0.87s0.87-0.39,0.87-0.87
					S34.915,35.543,34.435,35.543z"/>
			</g>
		</g>
	</g>
</g>
</svg>
