<?xml version="1.0" encoding="utf-8"?>
<!-- Generator: Adobe Illustrator 16.0.0, SVG Export Plug-In . SVG Version: 6.00 Build 0)  -->
<!DOCTYPE svg PUBLIC "-//W3C//DTD SVG 1.1//EN" "http://www.w3.org/Graphics/SVG/1.1/DTD/svg11.dtd">
<svg version="1.1" id="Layer_1" xmlns="http://www.w3.org/2000/svg" xmlns:xlink="http://www.w3.org/1999/xlink" x="0px" y="0px"
	 width="56px" height="72px" viewBox="0 0 56 72" enable-background="new 0 0 56 72" xml:space="preserve">
<g>
	<g>
		<g>
			<path fill="none" stroke="#FCAD67" stroke-width="3" stroke-miterlimit="10" d="M10.794,23.015
				c0,9.501,7.697,17.206,17.21,17.206c9.49,0,17.202-7.705,17.202-17.206S37.494,5.809,28.004,5.809
				C18.491,5.809,10.794,13.513,10.794,23.015z"/>
			<path fill="none" stroke="#FCAD67" stroke-width="3" stroke-miterlimit="10" d="M17.006,36.25h-6.212
				c-2.912,0-5.294,2.382-5.294,5.294v19.853c0,2.912,2.382,5.295,5.294,5.295h34.412c2.912,0,5.294-2.383,5.294-5.295V41.544
				c0-2.912-2.382-5.294-5.294-5.294h-6.22"/>
			<g>
				<g>
					<path fill="none" stroke="#FE7F86" stroke-width="3" stroke-miterlimit="10" d="M42.559,50.809v-3.971h-7.94v3.971
						c0,2.192,1.778,3.972,3.971,3.972C40.782,54.779,42.559,53.001,42.559,50.809z"/>
				</g>
			</g>
		</g>
	</g>
</g>
</svg>
