<?xml version="1.0" encoding="utf-8"?>
<!-- Generator: Adobe Illustrator 16.0.0, SVG Export Plug-In . SVG Version: 6.00 Build 0)  -->
<!DOCTYPE svg PUBLIC "-//W3C//DTD SVG 1.1//EN" "http://www.w3.org/Graphics/SVG/1.1/DTD/svg11.dtd">
<svg version="1.1" id="Layer_1" xmlns="http://www.w3.org/2000/svg" xmlns:xlink="http://www.w3.org/1999/xlink" x="0px" y="0px"
	 width="52px" height="52px" viewBox="0 0 52 52" enable-background="new 0 0 52 52" xml:space="preserve">
<g>
	<g>
		<path fill="#FCAD67" d="M49,36H3c-0.552,0-1-0.448-1-1s0.448-1,1-1h46c0.552,0,1,0.448,1,1S49.552,36,49,36z"/>
		<path fill="#FCAD67" d="M45,40H7c-2.757,0-5-2.243-5-5V13c0-2.757,2.243-5,5-5h38c2.757,0,5,2.243,5,5v22
			C50,37.756,47.757,40,45,40z M7,10c-1.654,0-3,1.346-3,3v22c0,1.654,1.346,3,3,3h38c1.654,0,3-1.346,3-3V13c0-1.654-1.346-3-3-3H7
			z"/>
		<path fill="#FCAD67" d="M26,10c-0.552,0-1-0.448-1-1V3c0-0.552,0.448-1,1-1s1,0.448,1,1v6C27,9.552,26.552,10,26,10z"/>
		<path fill="#FCAD67" d="M26,48c-0.552,0-1-0.448-1-1v-8c0-0.552,0.448-1,1-1s1,0.448,1,1v8C27,47.552,26.552,48,26,48z"/>
		<path fill="#FCAD67" d="M40,50c-0.396,0-0.771-0.238-0.93-0.629l-4-10c-0.204-0.514,0.045-1.096,0.558-1.301
			c0.515-0.201,1.095,0.046,1.3,0.558l4,10c0.205,0.513-0.044,1.095-0.557,1.3C40.249,49.977,40.124,50,40,50z"/>
		<path fill="#FCAD67" d="M12,50c-0.124,0-0.249-0.023-0.371-0.072c-0.513-0.205-0.762-0.787-0.557-1.3l4-10
			c0.205-0.513,0.784-0.761,1.3-0.558c0.513,0.207,0.762,0.787,0.557,1.301l-4,10C12.772,49.762,12.397,50,12,50z"/>
		<path fill="#FE7F86" d="M23.733,18.328c0-0.81,1.239-0.81,1.239-0.017v5.437c0,3.173-2.462,4.775-4.875,4.775
			c-2.413,0-4.875-1.603-4.875-4.775v-5.437c0-0.727,1.24-0.727,1.24,0.017v5.42c0,4.775,7.271,4.775,7.271,0V18.328z"/>
		<path fill="#FE7F86" d="M20.098,29.023c-2.671,0-5.375-1.812-5.375-5.275v-5.437c0-0.595,0.479-1.043,1.115-1.043
			c0.641,0,1.125,0.456,1.125,1.06v5.42c0,2.118,1.625,3.082,3.136,3.082c1.51,0,3.135-0.964,3.135-3.082v-5.42
			c0-0.632,0.483-1.109,1.125-1.109c0.635,0,1.115,0.47,1.115,1.093v5.437C25.473,27.212,22.769,29.023,20.098,29.023z
			 M15.838,18.268l-0.116,0.031l0.001,5.449c0,2.938,2.268,4.275,4.375,4.275s4.375-1.338,4.375-4.275v-5.437
			c0-0.037,0-0.093-0.115-0.093c-0.125,0-0.125,0.068-0.125,0.109v5.42c0,2.68-2.081,4.082-4.135,4.082
			c-2.055,0-4.136-1.402-4.136-4.082v-5.42L15.838,18.268z"/>
		<path fill="#FE7F86" d="M32.52,22.244l3.67-4.296c0.496-0.595,1.437,0.165,0.908,0.727l-3.834,4.363l3.95,4.511
			c0.562,0.694-0.28,1.372-0.925,0.727l-3.768-4.378l-3.817,4.378c-0.611,0.662-1.454-0.099-0.892-0.743l3.933-4.495l-3.817-4.396
			c-0.479-0.545,0.413-1.272,0.909-0.71L32.52,22.244z"/>
		<path fill="#FE7F86" d="M36.848,29.035c-0.326,0-0.65-0.145-0.912-0.406l-3.418-3.969l-3.438,3.943
			c-0.588,0.638-1.557,0.478-1.86-0.192c-0.18-0.396-0.1-0.847,0.214-1.208l3.647-4.167l-3.532-4.067
			c-0.271-0.308-0.335-0.71-0.17-1.076c0.305-0.677,1.316-0.876,1.831-0.293l3.31,3.873l3.289-3.851
			c0.5-0.599,1.563-0.402,1.862,0.294c0.163,0.376,0.085,0.788-0.209,1.101l-3.532,4.02l3.66,4.181
			c0.318,0.394,0.393,0.847,0.21,1.229C37.626,28.811,37.262,29.035,36.848,29.035z M32.521,23.134l4.145,4.816l0.229,0.067
			c0.004-0.007,0.004-0.061-0.071-0.154l-4.226-4.826l4.122-4.692l-0.094-0.113l-4.108,4.783l-4.064-4.758
			c-0.102-0.029-0.16,0.026-0.166,0.053l4.118,4.73l-4.22,4.821l-0.059,0.137c0.094,0.032,0.15-0.002,0.206-0.061L32.521,23.134z"/>
	</g>
</g>
</svg>
