<?xml version="1.0" encoding="utf-8"?>
<!-- Generator: Adobe Illustrator 17.0.0, SVG Export Plug-In . SVG Version: 6.00 Build 0)  -->
<!DOCTYPE svg PUBLIC "-//W3C//DTD SVG 1.1//EN" "http://www.w3.org/Graphics/SVG/1.1/DTD/svg11.dtd">
<svg version="1.1" id="Layer_1" xmlns="http://www.w3.org/2000/svg" xmlns:xlink="http://www.w3.org/1999/xlink" x="0px" y="0px"
	 width="94px" height="87px" viewBox="0 0 94 87" enable-background="new 0 0 94 87" xml:space="preserve">
<g>
	<circle fill="#96A29E" cx="24.069" cy="63.026" r="21.569"/>
	<circle fill="#57403C" cx="69.931" cy="63.026" r="21.569"/>
	<circle fill="#8B4041" cx="46.955" cy="23.974" r="21.569"/>
	<path fill="#FFFFFF" d="M52.561,30.313h-2.839l-3.689-4.232h-2.297v4.232h-2.387V17.636c2.007,0,4.015,0.018,6.022,0.018
		c2.984,0.018,4.557,2.008,4.557,4.196c0,1.736-0.795,3.49-3.201,3.978l3.834,4.322V30.313z M43.736,19.879v4.051h3.635
		c1.519,0,2.17-1.013,2.17-2.025c0-1.013-0.669-2.025-2.17-2.025H43.736z"/>
	<path fill="#FFFFFF" d="M29.024,69.355h-2.025l-1.574-3.979l-1.338-3.997l-1.32,4.033l-1.537,3.942h-2.025l-4.648-12.659h2.676
		l2.984,9.133l3.075-9.133h1.555l3.165,9.133l2.893-9.133h2.676L29.024,69.355z"/>
	<path fill="#FFFFFF" d="M75.582,62.917c0.054,3.201-1.899,6.438-6.33,6.438c-1.555,0-3.418,0-4.973,0V56.696
		c1.555,0,3.418,0,4.973,0C73.593,56.696,75.528,59.789,75.582,62.917z M66.648,67.058h2.604c2.876,0,4.015-2.098,3.961-4.159
		c-0.054-1.971-1.212-3.942-3.961-3.942h-2.604V67.058z"/>
</g>
</svg>
