<?xml version="1.0" encoding="utf-8"?>
<!-- Generator: Adobe Illustrator 16.0.0, SVG Export Plug-In . SVG Version: 6.00 Build 0)  -->
<!DOCTYPE svg PUBLIC "-//W3C//DTD SVG 1.1//EN" "http://www.w3.org/Graphics/SVG/1.1/DTD/svg11.dtd">
<svg version="1.1" id="Layer_1" xmlns="http://www.w3.org/2000/svg" xmlns:xlink="http://www.w3.org/1999/xlink" x="0px" y="0px"
	 width="94px" height="87px" viewBox="0 0 94 87" enable-background="new 0 0 94 87" xml:space="preserve">
<g>
	<path fill="#FCFCFC" d="M23.296,41.388C10.982,41.388,1,51.37,1,63.684C1,75.998,10.982,85.98,23.296,85.98
		c12.314,0,22.296-9.982,22.296-22.297C45.592,51.37,35.61,41.388,23.296,41.388z M28.418,70.227h-2.094l-1.627-4.112l-1.383-4.132
		l-1.365,4.17l-1.589,4.074h-2.094l-4.804-13.086h2.767l3.084,9.441l3.178-9.441H24.1l3.272,9.441l2.991-9.441h2.767L28.418,70.227z
		"/>
	<path fill="#FCFCFC" d="M70.704,41.388c-12.313,0-22.296,9.982-22.296,22.295c0,12.314,9.982,22.297,22.296,22.297
		S93,75.998,93,63.684C93,51.37,83.018,41.388,70.704,41.388z M70.003,70.227c-1.606,0-3.533,0-5.142,0V57.141
		c1.608,0,3.535,0,5.142,0c4.486,0,6.486,3.197,6.543,6.432C76.602,66.881,74.583,70.227,70.003,70.227z"/>
	<path fill="#FCFCFC" d="M70.002,59.477h-2.691v8.375h2.691c2.973,0,4.15-2.168,4.094-4.3C74.04,61.514,72.843,59.477,70.002,59.477
		z"/>
	<path fill="#FCFCFC" d="M49.627,21.175c0-1.047-0.691-2.094-2.243-2.094h-3.758v0.001v4.187h3.758
		C48.954,23.269,49.627,22.222,49.627,21.175z"/>
	<path fill="#FCFCFC" d="M69.249,23.316c0-12.313-9.982-22.296-22.296-22.296c-12.314,0-22.296,9.982-22.296,22.296
		c0,12.314,9.982,22.295,22.296,22.295C59.267,45.611,69.249,35.63,69.249,23.316z M52.748,29.869h-2.936L46,25.494h-2.374v4.374
		h-2.467V16.764c2.075,0,4.15,0.019,6.225,0.019c3.084,0.019,4.71,2.075,4.71,4.337c0,1.795-0.822,3.608-3.309,4.112l3.963,4.468
		V29.869z"/>
</g>
</svg>
